<?xml version="1.0" encoding="utf-8"?>
<svg version="1.1" width="79px" height="72px" xmlns:xlink="http://www.w3.org/1999/xlink" xmlns="http://www.w3.org/2000/svg">
  <g transform="translate(-10 -554)">
    <path d="M 10 554 L 89 554 L 89 626 L 10 626 L 10 554 " fill-rule="nonzero" fill="#cccccc" stroke="none" />
    <path d="M 15 559 L 84 559 L 84 621 L 15 621 L 15 559 " fill-rule="nonzero" fill="#ffffff" stroke="none" />
    <path d="M 56.48 575.6 C 53.456 575.6 51.08 573.224 51.08 570.2 C 51.08 567.176 53.456 564.8 56.48 564.8 C 59.504 564.8 61.88 567.176 61.88 570.2 C 61.88 573.224 59.504 575.6 56.48 575.6 " fill-rule="nonzero" fill="#cccccc" stroke="none" />
    <path d="M 17 619 L 17 587.1 L 33.25 572.6 L 56 587.283544303798 L 69 581.3 L 82 587.283544303798 L 82 619 L 17 619 " fill-rule="nonzero" fill="#169bd5" stroke="none" />
  </g>
</svg>