<?xml version="1.0" encoding="utf-8"?>
<svg version="1.1" width="30px" height="23px" xmlns:xlink="http://www.w3.org/1999/xlink" xmlns="http://www.w3.org/2000/svg">
  <g transform="translate(-25 -21)">
    <path d="M 27.6981026785714 20.75390625 C 27.8041294642857 20.6504498106061 27.8571428571429 20.5279356060606 27.8571428571429 20.3863636363636 L 27.8571428571429 7.84090909090909 C 27.5 8.23295454545455 27.1149553571429 8.59232954545455 26.7020089285714 8.91903409090909 C 23.7109375 11.1624053030303 21.3337053571429 13.0028409090909 19.5703125 14.4403409090909 C 19.0011160714286 14.9086174242424 18.5379464285714 15.2734375 18.1808035714286 15.5348011363636 C 17.8236607142857 15.7961647727273 17.3409598214286 16.0602509469697 16.7327008928571 16.3270596590909 C 16.1244419642857 16.5938683712121 15.5524553571429 16.7272727272727 15.0167410714286 16.7272727272727 L 15 16.7272727272727 L 14.9832589285714 16.7272727272727 C 14.4475446428571 16.7272727272727 13.8755580357143 16.5938683712121 13.2672991071429 16.3270596590909 C 12.6590401785714 16.0602509469697 12.1763392857143 15.7961647727273 11.8191964285714 15.5348011363636 C 11.4620535714286 15.2734375 10.9988839285714 14.9086174242424 10.4296875 14.4403409090909 C 8.66629464285714 13.0028409090909 6.2890625 11.1624053030303 3.29799107142857 8.91903409090909 C 2.88504464285714 8.59232954545455 2.5 8.23295454545455 2.14285714285714 7.84090909090909 L 2.14285714285714 20.3863636363636 C 2.14285714285714 20.5279356060606 2.19587053571429 20.6504498106061 2.30189732142857 20.75390625 C 2.40792410714286 20.8573626893939 2.53348214285714 20.9090909090909 2.67857142857143 21 L 27.3214285714286 21 C 27.4665178571429 20.9090909090909 27.5920758928571 20.8573626893939 27.6981026785714 20.75390625 Z M 27.0786830357143 5.36612215909091 C 27.59765625 4.57658617424242 27.8571428571429 3.86055871212121 27.8571428571429 3.21803977272727 L 27.8571428571429 3.03835227272727 L 27.8571428571429 2.81782670454546 C 27.8571428571429 2.81782670454546 27.8543526785714 2.74704071969697 27.8487723214286 2.60546875 C 27.8431919642857 2.46389678030303 27.8264508928571 2.39583333333333 27.7985491071429 2.40127840909091 C 27.7706473214286 2.40672348484848 27.7399553571429 2.3577178030303 27.7064732142857 2.25426136363636 C 27.6729910714286 2.15080492424242 27.6227678571429 2.1099668560606 27.5558035714286 2.13174715909091 C 27.4888392857143 2.15352746212121 27.4107142857143 2.13991477272727 27.3214285714286 2 L 2.67857142857143 2 C 2.53348214285714 2.09090909090909 2.40792410714286 2.14263731060606 2.30189732142857 2.24609375 C 2.19587053571429 2.34955018939394 2.14285714285714 2.47206439393939 2.14285714285714 2.61363636363636 C 2.14285714285714 4.44318181818182 2.96316964285714 5.98958333333333 4.60379464285714 7.25284090909091 C 6.7578125 8.90814393939394 8.99553571428572 10.6342329545455 11.3169642857143 12.4311079545455 C 11.3839285714286 12.4855587121212 11.5792410714286 12.6461884469697 11.9029017857143 12.9129971590909 C 12.2265625 13.1798058712121 12.4832589285714 13.3839962121212 12.6729910714286 13.5255681818182 C 12.8627232142857 13.6671401515151 13.1110491071429 13.8386600378788 13.41796875 14.0401278409091 C 13.7248883928571 14.2415956439394 14.0066964285714 14.3913352272727 14.2633928571429 14.4893465909091 C 14.5200892857143 14.5873579545455 14.7600446428571 14.6363636363636 14.9832589285714 14.6363636363636 L 15 14.6363636363636 L 15.0167410714286 14.6363636363636 C 15.2399553571429 14.6363636363636 15.4799107142857 14.5873579545455 15.7366071428571 14.4893465909091 C 15.9933035714286 14.3913352272727 16.2751116071429 14.2415956439394 16.58203125 14.0401278409091 C 16.8889508928571 13.8386600378788 17.1372767857143 13.6671401515151 17.3270089285714 13.5255681818182 C 17.5167410714286 13.3839962121212 17.7734375 13.1798058712121 18.0970982142857 12.9129971590909 C 18.4207589285714 12.6461884469697 18.6160714285714 12.4855587121212 18.6830357142857 12.4311079545455 C 21.0044642857143 10.6342329545455 23.2421875 8.90814393939394 25.3962053571429 7.25284090909091 C 25.9988839285714 6.78456439393939 26.5597098214286 6.15565814393939 27.0786830357143 5.36612215909091 Z M 29.2131696428571 0.767755681818181 C 29.7377232142857 1.2795928030303 30 1.89488636363636 30 2.61363636363636 L 30 20.3863636363636 C 30 21.1051136363636 29.7377232142857 21.7204071969697 29.2131696428571 22.2322443181818 C 28.6886160714286 22.7440814393939 28.0580357142857 23 27.3214285714286 23 L 2.67857142857143 23 C 1.94196428571429 23 1.31138392857143 22.7440814393939 0.786830357142857 22.2322443181818 C 0.262276785714286 21.7204071969697 0 21.1051136363636 0 20.3863636363636 L 0 2.61363636363636 C 0 1.89488636363636 0.262276785714286 1.2795928030303 0.786830357142857 0.767755681818181 C 1.31138392857143 0.255918560606058 1.94196428571429 0 2.67857142857143 0 L 27.3214285714286 0 C 28.0580357142857 0 28.6886160714286 0.255918560606058 29.2131696428571 0.767755681818181 Z " fill-rule="nonzero" fill="#60d9d4" stroke="none" transform="matrix(1 0 0 1 25 21 )" />
  </g>
</svg>