<?xml version="1.0" encoding="utf-8"?>
<svg version="1.1" width="95px" height="30px" xmlns:xlink="http://www.w3.org/1999/xlink" xmlns="http://www.w3.org/2000/svg">
  <g transform="translate(-188 -108)">
    <path d="M 188 108 L 283 108 L 283 138 L 188 138 L 188 108 " fill-rule="nonzero" fill="#cccccc" stroke="none" />
    <path d="M 190 110 L 281 110 L 281 136 L 190 136 L 190 110 " fill-rule="nonzero" fill="#ffffff" stroke="none" />
    <path d="M 239.65 117 C 238.39 117 237.4 116.01 237.4 114.75 C 237.4 113.49 238.39 112.5 239.65 112.5 C 240.91 112.5 241.9 113.49 241.9 114.75 C 241.9 116.01 240.91 117 239.65 117 " fill-rule="nonzero" fill="#cccccc" stroke="none" />
    <path d="M 191 135 L 191 121.8 L 213.25 115.8 L 244.4 130.452631578947 L 262.2 119.4 L 280 130.452631578947 L 280 135 L 191 135 " fill-rule="nonzero" fill="#169bd5" stroke="none" />
  </g>
</svg>