<?xml version="1.0" encoding="utf-8"?>
<svg version="1.1" width="10px" height="15px" xmlns:xlink="http://www.w3.org/1999/xlink" xmlns="http://www.w3.org/2000/svg">
  <g transform="translate(-10 -13)">
    <path d="M 9.82817869415807 0.901803607214428 C 9.94272623138603 1.00200400801603 10 1.11723446893787 10 1.24749498997996 C 10 1.37775551102204 9.94272623138603 1.49298597194389 9.82817869415807 1.59318637274549 L 3.07560137457045 7.5 L 9.82817869415807 13.4068136272545 C 9.94272623138603 13.5070140280561 10 13.622244488978 10 13.75250501002 C 10 13.8827655310621 9.94272623138603 13.997995991984 9.82817869415807 14.0981963927856 L 8.96907216494845 14.8496993987976 C 8.8545246277205 14.9498997995992 8.72279495990836 15 8.57388316151203 15 C 8.4249713631157 15 8.29324169530355 14.9498997995992 8.1786941580756 14.8496993987976 L 0.171821305841924 7.84569138276553 C 0.0572737686139748 7.74549098196393 0 7.63026052104208 0 7.5 C 0 7.36973947895792 0.0572737686139748 7.25450901803607 0.171821305841924 7.15430861723447 L 8.1786941580756 0.150300601202405 C 8.29324169530355 0.0501002004008011 8.4249713631157 0 8.57388316151203 0 C 8.72279495990836 0 8.8545246277205 0.0501002004008011 8.96907216494845 0.150300601202405 L 9.82817869415807 0.901803607214428 Z " fill-rule="nonzero" fill="#ffffff" stroke="none" transform="matrix(1 0 0 1 10 13 )" />
  </g>
</svg>