<?xml version="1.0" encoding="utf-8"?>
<svg version="1.1" width="244px" height="218px" xmlns:xlink="http://www.w3.org/1999/xlink" xmlns="http://www.w3.org/2000/svg">
  <g transform="translate(-85 -358)">
    <path d="M 45 158 L 67 158 L 67 178 L 45 178 L 45 158 Z M 45 40 L 67 40 L 67 60 L 45 60 L 45 40 Z M 177 40 L 199 40 L 199 60 L 177 60 L 177 40 Z M 23 138 L 23 198 L 89 198 L 89 138 L 23 138 Z M 23 20 L 23 80 L 89 80 L 89 20 L 23 20 Z M 155 20 L 155 80 L 221 80 L 221 20 L 155 20 Z M 0 119 L 111 119 L 111 218 L 0 218 L 0 119 Z M 177 198 L 199 198 L 199 218 L 177 218 L 177 198 Z M 221 198 L 244 198 L 244 218 L 221 218 L 221 198 Z M 221 119 L 244 119 L 244 178 L 177 178 L 177 158 L 155 158 L 155 218 L 133 218 L 133 119 L 199 119 L 199 138 L 221 138 L 221 119 Z M 0 0 L 111 0 L 111 99 L 0 99 L 0 0 Z M 133 0 L 244 0 L 244 99 L 133 99 L 133 0 Z " fill-rule="nonzero" fill="#000000" stroke="none" transform="matrix(1 0 0 1 85 358 )" />
  </g>
</svg>